<?xml version="1.0" standalone="no"?>
<!DOCTYPE svg PUBLIC "-//W3C//DTD SVG 20010904//EN"
 "http://www.w3.org/TR/2001/REC-SVG-20010904/DTD/svg10.dtd">
<svg version="1.0" xmlns="http://www.w3.org/2000/svg"
 width="590.000000pt" height="590.000000pt" viewBox="0 0 590.000000 590.000000"
 preserveAspectRatio="xMidYMid meet">
<metadata>
Created by potrace 1.11, written by Peter Selinger 2001-2013
</metadata>
<g transform="translate(0.000000,590.000000) scale(0.100000,-0.100000)"
fill="#000000" stroke="none">
<path d="M2210 5517 c-173 -260 -400 -669 -542 -977 -61 -130 -64 -139 -103
-235 -61 -150 -68 -165 -82 -165 -7 0 -21 -4 -31 -10 -9 -5 -46 -21 -82 -36
-204 -83 -850 -402 -941 -466 -15 -10 -35 -21 -46 -25 -34 -14 -303 -168 -303
-174 0 -3 33 -39 73 -80 298 -301 488 -680 523 -1041 3 -35 7 -64 9 -66 1 -2
79 44 171 101 211 129 315 190 319 185 2 -1 6 -55 10 -118 4 -63 9 -128 11
-145 2 -16 6 -50 10 -75 3 -25 9 -64 15 -88 5 -23 12 -59 15 -80 23 -154 119
-425 214 -607 68 -131 110 -194 206 -310 223 -270 565 -481 924 -570 276 -68
467 -90 770 -89 231 1 363 14 645 60 47 7 254 53 313 68 28 8 52 12 52 10 0
-3 -16 -48 -36 -100 -19 -53 -34 -97 -32 -99 2 -1 37 -6 78 -9 90 -8 243 -32
288 -45 28 -8 34 -7 46 12 16 26 148 325 167 380 7 20 17 37 22 37 4 0 5 5 1
12 -4 7 -3 8 4 4 26 -16 611 254 830 383 29 17 57 31 61 31 5 0 14 6 20 14 10
11 2 34 -39 111 -28 53 -60 122 -72 153 -11 31 -24 60 -27 65 -4 4 -54 -15
-112 -42 -163 -77 -468 -201 -494 -201 -4 0 -1 15 14 67 14 49 67 310 76 368
3 23 7 52 10 65 3 14 7 52 11 85 3 33 7 66 9 73 22 67 22 625 1 738 -2 10 -7
42 -10 69 -54 412 -203 773 -430 1040 -176 208 -391 360 -696 493 -123 54
-407 131 -540 147 -30 4 -57 8 -60 10 -3 2 -43 6 -90 10 -47 4 -96 9 -110 10
-14 2 -51 3 -83 4 l-59 1 42 78 c54 100 220 350 348 525 56 75 98 138 94 138
-4 1 -29 0 -57 -2 -95 -6 -370 -3 -430 5 -277 35 -514 120 -735 263 -47 31
-87 58 -90 62 -26 32 -35 29 -70 -22z m980 -2442 c85 -8 93 -9 215 -35 188
-39 383 -119 540 -221 102 -67 256 -221 324 -324 69 -106 144 -264 165 -350 2
-5 6 -17 9 -25 12 -28 46 -185 52 -245 4 -33 9 -63 11 -66 14 -24 21 -334 10
-474 -12 -168 -16 -185 -40 -186 -11 0 -30 -2 -41 -5 -35 -7 -217 -18 -305
-18 -91 0 -282 12 -303 19 -6 2 -30 6 -52 9 -211 26 -446 112 -614 223 -447
298 -664 898 -576 1593 11 87 13 90 48 91 17 0 41 2 52 4 11 3 67 7 125 11 58
4 106 8 108 9 4 4 197 -4 272 -10z"/>
</g>
</svg>
